<?xml version="1.0" standalone="no"?>
<!DOCTYPE svg PUBLIC "-//W3C//DTD SVG 20010904//EN"
 "http://www.w3.org/TR/2001/REC-SVG-20010904/DTD/svg10.dtd">
<svg version="1.0" xmlns="http://www.w3.org/2000/svg"
 width="1080.000000pt" height="1080.000000pt" viewBox="0 0 1080.000000 1080.000000"
 preserveAspectRatio="xMidYMid meet">

<g transform="translate(0.000000,1080.000000) scale(0.100000,-0.100000)"
fill="#000000" stroke="none">
<path d="M0 5400 l0 -5400 5400 0 5400 0 0 5400 0 5400 -5400 0 -5400 0 0
-5400z m3925 4289 c797 -111 1502 -617 1871 -1342 54 -106 96 -209 140 -342
l33 -100 1218 -5 c1211 -5 1218 -5 1258 -26 49 -26 95 -88 106 -145 4 -24 8
-277 9 -561 l0 -518 470 0 469 0 3 -57 3 -58 53 -3 52 -3 0 -2085 0 -2084
-989 0 -988 0 -59 -126 c-67 -146 -55 -147 -140 18 l-55 108 -222 0 -222 -1
-53 -38 c-49 -35 -51 -39 -30 -44 32 -8 96 8 130 33 l28 21 65 -50 65 -49 -25
-31 c-14 -16 -52 -43 -83 -58 -50 -25 -68 -28 -152 -28 -77 0 -104 4 -143 22
-65 30 -142 112 -164 173 l-18 50 -66 0 -67 0 -35 -48 c-66 -92 -174 -161
-287 -182 -29 -5 -142 -10 -251 -10 l-199 0 0 440 0 439 103 3 102 3 0 120 0
120 -2090 5 c-1701 4 -2094 7 -2113 18 -40 23 -62 71 -62 137 -1 33 -4 90 -9
127 -4 37 -3 74 1 83 8 13 57 15 368 15 l358 0 -29 29 -29 29 0 715 0 715 -37
23 c-162 98 -427 340 -574 522 -295 366 -471 775 -534 1242 -20 144 -23 457
-6 600 46 394 177 757 389 1080 109 166 185 260 331 405 444 443 994 685 1641
723 106 7 326 -5 465 -24z m-695 -6769 l0 -80 -115 0 -115 0 0 -360 0 -360
-95 0 -95 0 0 360 0 360 -105 0 -105 0 0 80 0 80 315 0 315 0 0 -80z m420
-275 l0 -85 -40 0 c-59 0 -95 -22 -114 -70 -12 -32 -16 -76 -16 -205 l0 -165
-85 0 -85 0 0 300 0 300 85 0 c79 0 85 -1 85 -21 0 -20 0 -20 28 -1 37 26 50
30 100 31 l42 1 0 -85z m439 64 c40 -17 46 -18 53 -4 7 11 27 15 88 15 l80 0
0 -300 0 -300 -85 0 c-68 0 -85 3 -85 15 0 11 -8 11 -42 -5 -85 -39 -211 -17
-283 47 -154 137 -140 384 29 506 70 50 170 61 245 26z m755 9 c27 -8 60 -31
96 -68 80 -79 91 -119 98 -347 l4 -183 -86 0 -86 0 0 165 c0 181 -7 216 -55
253 -36 29 -108 30 -153 2 -54 -33 -62 -68 -62 -255 l0 -165 -85 0 -85 0 0
300 0 300 85 0 c80 0 85 -1 85 -21 0 -18 2 -19 15 -9 45 37 153 50 229 28z
m561 -7 c37 -17 94 -67 84 -74 -2 -1 -30 -22 -61 -45 -54 -40 -58 -41 -84 -27
-30 15 -64 5 -64 -19 0 -21 21 -32 84 -44 102 -20 158 -71 172 -158 14 -91
-53 -198 -141 -223 -50 -14 -129 -14 -174 -1 -41 12 -111 58 -111 74 1 18 132
106 144 97 41 -32 101 -13 94 30 -2 20 -14 28 -72 46 -113 36 -161 97 -154
192 5 71 34 112 102 146 60 30 124 32 181 6z"/>
<path d="M3330 9560 c-709 -76 -1325 -451 -1723 -1050 -188 -282 -328 -677
-366 -1032 -14 -125 -14 -381 0 -506 42 -387 189 -776 413 -1092 75 -106 201
-253 298 -346 80 -77 273 -234 289 -234 5 0 9 457 9 1219 0 731 4 1230 9 1244
16 40 73 99 116 118 38 18 117 19 1743 19 l1703 0 -6 23 c-25 80 -85 229 -135
332 -115 238 -253 431 -444 620 -364 362 -778 577 -1283 666 -131 23 -486 34
-623 19z"/>
<path d="M4286 7834 c-41 -40 4 -105 57 -85 16 6 29 21 33 36 13 50 -53 86
-90 49z"/>
<path d="M2460 5765 l0 -1925 2943 2 2942 3 3 1922 2 1923 -2945 0 -2945 0 0
-1925z m1100 1600 c0 -70 -4 -115 -10 -115 -6 0 -10 45 -10 115 0 70 4 115 10
115 6 0 10 -45 10 -115z m1870 52 c-11 -23 -20 -60 -20 -82 0 -22 9 -59 20
-82 23 -51 8 -67 -20 -21 -38 62 -35 158 5 216 26 36 36 15 15 -31z m214 15
c32 -63 27 -151 -10 -210 -22 -33 -37 -17 -18 19 26 52 29 120 6 172 -28 62
-9 79 22 19z m246 29 c0 -5 -7 -11 -15 -15 -9 -3 -15 -19 -15 -41 0 -20 -5
-45 -10 -55 -7 -13 -7 -21 0 -25 5 -3 10 -26 10 -51 0 -32 4 -44 15 -44 8 0
15 -5 15 -11 0 -6 -12 -9 -27 -7 -26 3 -28 7 -31 53 -2 27 -8 55 -14 63 -8 9
-8 16 0 24 7 7 12 33 12 58 0 26 3 50 7 53 10 10 53 8 53 -2z m-921 -15 c30
-16 51 -53 51 -91 0 -65 -47 -105 -125 -105 l-45 0 0 105 0 105 45 0 c26 0 58
-6 74 -14z m-789 -51 c0 -18 5 -25 20 -25 11 0 20 -4 20 -10 0 -5 -9 -10 -20
-10 -17 0 -20 -7 -20 -50 0 -27 -4 -50 -10 -50 -5 0 -10 23 -10 50 0 38 -4 50
-15 50 -8 0 -15 5 -15 10 0 6 7 10 15 10 9 0 15 9 15 25 0 14 5 25 10 25 6 0
10 -11 10 -25z m-1300 -90 c0 -67 -18 -73 -22 -7 -3 43 -5 47 -28 47 -23 0
-25 -4 -28 -47 -2 -34 -7 -48 -18 -48 -11 0 -14 14 -14 61 0 50 3 60 15 55 8
-3 25 -2 37 3 41 15 58 -3 58 -64z m158 52 c23 -18 12 -35 -30 -49 -47 -16
-50 -34 -5 -31 37 2 30 -21 -7 -25 -49 -6 -85 53 -58 95 18 29 69 34 100 10z
m680 10 c20 1 22 -3 22 -56 l0 -58 -50 -1 c-62 -1 -82 16 -78 67 2 26 9 39 28
48 14 7 32 10 40 6 8 -3 25 -6 38 -6z m152 -8 c0 -5 -10 -8 -21 -6 -32 3 -35
-21 -4 -33 21 -8 26 -16 23 -38 -3 -24 -7 -27 -37 -27 -19 0 -36 5 -38 11 -2
7 5 10 20 7 37 -7 42 14 7 32 -36 19 -40 52 -8 64 25 9 58 3 58 -10z m120 0
c0 -5 -10 -8 -21 -6 -33 3 -32 -16 1 -35 33 -19 38 -39 16 -57 -18 -15 -68
-11 -74 6 -2 9 5 11 27 7 24 -5 31 -3 31 9 0 8 -11 18 -24 21 -34 8 -42 37
-17 57 21 17 61 15 61 -2z m481 9 c29 1 29 0 29 -59 0 -46 -3 -59 -15 -59 -8
0 -15 5 -15 12 0 9 -3 9 -12 0 -39 -39 -111 12 -92 66 10 28 51 55 67 45 6 -3
23 -6 38 -5z m189 -63 c0 -67 -18 -73 -22 -7 -3 43 -5 47 -28 47 -23 0 -25 -4
-28 -47 -2 -34 -7 -48 -18 -48 -11 0 -14 14 -14 61 0 50 3 60 15 55 8 -3 25
-2 37 3 41 15 58 -3 58 -64z m130 54 c0 -5 -10 -8 -21 -6 -33 3 -32 -16 1 -35
33 -19 38 -39 16 -57 -18 -15 -68 -11 -74 6 -2 9 5 11 27 7 40 -8 41 10 1 31
-36 19 -40 52 -8 64 25 9 58 3 58 -10z m368 5 c32 -22 27 -41 -15 -54 -21 -7
-42 -16 -47 -21 -11 -10 39 -23 53 -14 6 3 11 -1 11 -9 0 -11 -10 -16 -32 -16
-79 0 -94 95 -18 123 23 8 24 8 48 -9z m-2041 -29 l17 -36 13 26 c8 14 11 30
8 35 -3 6 -2 10 4 10 6 0 19 -17 29 -37 l19 -37 12 37 c7 20 19 37 27 37 14 0
14 -3 -21 -85 l-17 -40 -21 40 -20 40 -17 -40 -18 -40 -26 58 c-29 65 -30 67
-16 67 6 0 18 -16 27 -35z m373 25 c0 -5 -13 -10 -30 -10 -37 0 -56 -30 -40
-61 8 -13 19 -19 35 -17 13 2 25 -1 27 -7 5 -17 -58 -17 -76 0 -20 21 -21 69
0 89 17 18 84 22 84 6z m790 0 c0 -6 8 -5 20 2 10 7 23 8 27 4 4 -5 2 -11 -5
-13 -26 -10 -42 -36 -42 -69 0 -24 -5 -34 -15 -34 -12 0 -15 13 -15 60 0 47 3
60 15 60 8 0 15 -5 15 -10z m979 -27 l19 -38 16 38 c9 20 23 37 31 37 12 0 8
-14 -16 -62 -34 -67 -32 -68 -75 15 -19 37 -21 47 -9 47 8 0 23 -17 34 -37z
m16 -322 c7 -12 -12 -24 -25 -16 -11 7 -4 25 10 25 5 0 11 -4 15 -9z m-935
-26 c0 -16 6 -25 15 -25 8 0 15 -4 15 -10 0 -5 -7 -10 -15 -10 -11 0 -15 -12
-15 -50 0 -38 -4 -50 -15 -50 -11 0 -15 12 -15 49 0 30 -5 52 -12 55 -10 5
-10 7 0 12 6 3 12 17 12 30 0 15 6 24 15 24 9 0 15 -9 15 -25z m830 0 c0 -18
5 -25 20 -25 11 0 20 -4 20 -10 0 -5 -9 -10 -20 -10 -17 0 -20 -7 -20 -50 0
-27 -4 -50 -10 -50 -5 0 -10 23 -10 50 0 38 -4 50 -15 50 -8 0 -15 5 -15 10 0
6 7 10 15 10 9 0 15 9 15 25 0 14 5 25 10 25 6 0 10 -11 10 -25z m-1169 -27
c29 1 29 0 29 -57 l0 -58 -57 1 c-53 1 -59 3 -71 30 -11 21 -12 34 -3 52 11
25 49 46 65 36 5 -3 22 -5 37 -4z m620 0 c29 1 29 0 29 -57 l0 -58 -57 1 c-53
1 -59 3 -71 30 -11 21 -12 34 -3 52 11 25 49 46 65 36 5 -3 22 -5 37 -4z m323
-9 c14 -11 26 -24 26 -28 0 -4 -18 -13 -40 -21 -41 -16 -50 -35 -15 -36 36 0
31 -19 -7 -22 -31 -3 -40 1 -54 23 -22 33 -10 74 26 92 33 17 33 16 64 -8z
m136 0 c0 -5 -10 -8 -21 -6 -33 3 -32 -16 1 -35 33 -19 38 -39 16 -57 -18 -15
-68 -11 -74 6 -2 9 5 11 27 7 24 -5 31 -3 31 9 0 8 -11 18 -24 21 -34 8 -42
37 -17 57 21 17 61 15 61 -2z m-1295 -26 l18 -38 15 38 c8 20 21 37 28 37 19
0 17 -7 -15 -69 l-28 -55 -32 55 c-35 60 -37 69 -18 69 7 0 22 -17 32 -37z
m325 25 c0 -9 3 -9 12 0 7 7 19 12 28 12 10 -1 6 -8 -12 -21 -22 -16 -28 -29
-28 -60 0 -28 -4 -39 -15 -39 -12 0 -15 13 -15 60 0 47 3 60 15 60 8 0 15 -5
15 -12z m320 2 c0 -6 8 -5 20 2 30 19 36 1 7 -23 -20 -15 -27 -30 -27 -55 0
-19 -4 -34 -10 -34 -6 0 -10 27 -10 60 0 33 4 60 10 60 6 0 10 -5 10 -10z
m305 -27 l18 -38 15 38 c8 20 21 37 28 37 19 0 17 -7 -15 -69 l-28 -55 -32 55
c-35 60 -37 69 -18 69 7 0 22 -17 32 -37z m535 -23 c0 -33 -4 -60 -10 -60 -6
0 -10 27 -10 60 0 33 4 60 10 60 6 0 10 -27 10 -60z m78 29 c-2 -6 -8 -10 -13
-10 -5 0 -11 4 -13 10 -2 6 4 11 13 11 9 0 15 -5 13 -11z m-13 -86 c-7 -30
-21 -50 -30 -41 -8 8 16 68 27 68 6 0 7 -11 3 -27z m-995 -268 c0 -16 6 -25
15 -25 8 0 15 -4 15 -10 0 -5 -7 -10 -15 -10 -11 0 -15 -12 -15 -50 0 -38 -4
-50 -15 -50 -11 0 -15 12 -15 49 0 30 -5 52 -12 55 -10 5 -10 7 0 12 6 3 12
17 12 30 0 15 6 24 15 24 9 0 15 -9 15 -25z m-339 -27 c29 1 29 0 29 -57 l0
-58 -57 1 c-53 1 -59 3 -71 30 -11 21 -12 34 -3 52 11 25 49 46 65 36 5 -3 22
-5 37 -4z m620 0 c29 1 29 0 29 -57 l0 -58 -57 1 c-53 1 -59 3 -71 30 -11 21
-12 34 -3 52 11 25 49 46 65 36 5 -3 22 -5 37 -4z m197 -67 c2 -40 0 -51 -12
-51 -11 0 -16 13 -18 47 -2 37 -7 49 -22 51 -24 5 -36 -14 -36 -60 0 -27 -4
-38 -15 -38 -12 0 -15 13 -15 59 l0 60 30 -1 c17 -1 33 2 37 6 4 3 16 0 27 -8
16 -10 22 -26 24 -65z m122 58 c0 -5 -10 -8 -21 -6 -33 3 -32 -16 1 -35 33
-19 38 -39 16 -57 -18 -15 -68 -11 -74 6 -2 9 5 11 27 7 24 -5 31 -3 31 9 0 8
-11 18 -24 21 -34 8 -42 37 -17 57 21 17 61 15 61 -2z m-1155 -26 l18 -38 15
38 c8 20 21 37 28 37 19 0 17 -7 -15 -69 l-28 -55 -32 55 c-35 60 -37 69 -18
69 7 0 22 -17 32 -37z m325 25 c0 -9 3 -9 12 0 7 7 19 12 28 12 10 -1 6 -8
-12 -21 -22 -16 -28 -29 -28 -60 0 -28 -4 -39 -15 -39 -12 0 -15 13 -15 60 0
47 3 60 15 60 8 0 15 -5 15 -12z m320 2 c0 -6 8 -5 20 2 30 19 36 1 7 -23 -20
-15 -27 -30 -27 -55 0 -19 -4 -34 -10 -34 -6 0 -10 27 -10 60 0 33 4 60 10 60
6 0 10 -5 10 -10z m588 -21 c-2 -6 -8 -10 -13 -10 -5 0 -11 4 -13 10 -2 6 4
11 13 11 9 0 15 -5 13 -11z m-8 -69 c0 -16 -23 -60 -32 -60 -11 0 -10 14 4 45
11 25 28 34 28 15z m-94 -245 c15 -22 15 -27 1 -48 -13 -21 -13 -25 4 -46 38
-47 2 -91 -73 -91 l-48 0 0 105 0 105 50 0 c42 0 52 -4 66 -25z m94 -20 c0 -8
-4 -15 -9 -15 -13 0 -22 16 -14 24 11 11 23 6 23 -9z m-1009 -47 c29 1 29 0
29 -57 l0 -58 -57 1 c-53 1 -59 3 -71 30 -11 21 -12 34 -3 52 11 25 49 46 65
36 5 -3 22 -5 37 -4z m409 -63 c0 -42 -3 -55 -15 -55 -11 0 -15 12 -15 50 0
43 -3 50 -20 50 -24 0 -40 -28 -40 -69 0 -17 -4 -31 -10 -31 -6 0 -10 27 -10
60 0 33 4 60 10 60 6 0 10 -4 10 -9 0 -6 12 -4 27 4 44 23 63 5 63 -60z m135
65 c52 -20 53 -103 0 -116 -61 -15 -106 27 -85 81 8 21 24 33 57 44 1 1 13 -3
28 -9z m195 -65 c0 -67 -18 -73 -22 -7 -3 43 -5 47 -28 47 -23 0 -25 -4 -28
-47 -2 -34 -7 -48 -18 -48 -11 0 -14 14 -14 61 0 50 3 60 15 55 8 -3 25 -2 37
3 41 15 58 -3 58 -64z m424 59 c22 -21 22 -114 1 -114 -11 0 -15 12 -15 50 0
41 -3 50 -18 50 -28 0 -42 -21 -42 -62 0 -27 -4 -38 -15 -38 -12 0 -15 13 -15
60 0 47 3 60 15 60 8 0 15 -5 15 -11 0 -5 10 -3 22 5 28 20 33 20 52 0z m167
4 c29 1 29 0 29 -59 0 -46 -3 -59 -15 -59 -8 0 -15 5 -15 12 0 9 -3 9 -12 0
-39 -39 -111 12 -92 66 10 28 51 55 67 45 6 -3 23 -6 38 -5z m-1546 -35 l18
-38 15 38 c8 20 21 37 28 37 19 0 17 -7 -15 -69 l-28 -55 -32 55 c-35 60 -37
69 -18 69 7 0 22 -17 32 -37z m325 25 c0 -9 3 -9 12 0 7 7 19 12 28 12 10 -1
6 -8 -12 -21 -22 -16 -28 -29 -28 -60 0 -28 -4 -39 -15 -39 -12 0 -15 13 -15
60 0 47 3 60 15 60 8 0 15 -5 15 -12z m900 -48 c0 -47 -3 -60 -15 -60 -12 0
-15 13 -15 60 0 47 3 60 15 60 12 0 15 -13 15 -60z m420 50 c0 -7 7 -7 21 0
29 16 38 3 11 -16 -16 -11 -22 -25 -22 -55 0 -28 -4 -39 -15 -39 -12 0 -15 13
-15 60 0 33 4 60 10 60 6 0 10 -5 10 -10z m129 -32 l19 -43 19 42 c19 45 50
63 34 20 -28 -74 -71 -157 -81 -157 -8 0 -9 7 -5 18 16 39 15 51 -9 105 -20
46 -22 57 -10 57 8 0 23 -19 33 -42z m139 11 c-2 -6 -8 -10 -13 -10 -5 0 -11
4 -13 10 -2 6 4 11 13 11 9 0 15 -5 13 -11z m-13 -86 c-7 -30 -21 -50 -30 -41
-8 8 16 68 27 68 6 0 7 -11 3 -27z m-2840 -604 c4 -6 -2 -13 -14 -16 -17 -4
-21 -13 -21 -44 0 -28 4 -39 15 -39 8 0 15 -4 15 -10 0 -5 -7 -10 -15 -10 -11
0 -15 -12 -15 -50 0 -38 -4 -50 -15 -50 -11 0 -15 12 -15 49 0 30 -5 52 -12
55 -10 5 -10 7 0 12 6 3 12 23 12 44 0 53 45 93 65 59z m1265 -102 l0 -113
-55 -2 c-46 -1 -57 2 -70 21 -38 54 11 119 73 96 21 -8 22 -7 22 51 0 47 3 60
15 60 12 0 15 -19 15 -113z m548 -5 c2 -95 0 -112 -13 -112 -13 0 -15 18 -15
116 0 88 3 115 13 112 8 -3 13 -38 15 -116z m1236 62 c-24 -36 -25 -127 -1
-173 11 -22 14 -38 8 -44 -6 -6 -18 7 -31 33 -18 35 -21 56 -18 110 4 71 31
131 50 112 7 -7 4 -19 -8 -38z m-2394 -9 c0 -8 -7 -15 -15 -15 -8 0 -15 7 -15
15 0 8 7 15 15 15 8 0 15 -7 15 -15z m3440 0 c0 -8 -7 -15 -15 -15 -8 0 -15 7
-15 15 0 8 7 15 15 15 8 0 15 -7 15 -15z m-3540 -20 c0 -16 6 -25 15 -25 8 0
15 -4 15 -10 0 -5 -7 -10 -15 -10 -11 0 -15 -12 -15 -50 0 -38 -4 -50 -15 -50
-11 0 -15 12 -15 49 0 30 -5 52 -12 55 -10 5 -10 7 0 12 6 3 12 17 12 30 0 15
6 24 15 24 9 0 15 -9 15 -25z m2270 0 c0 -16 6 -25 15 -25 8 0 15 -4 15 -10 0
-5 -7 -10 -15 -10 -11 0 -15 -12 -15 -50 0 -38 -4 -50 -15 -50 -11 0 -15 12
-15 49 0 30 -5 52 -12 55 -10 5 -10 7 0 12 6 3 12 17 12 30 0 15 6 24 15 24 9
0 15 -9 15 -25z m330 0 c0 -16 6 -25 15 -25 8 0 15 -4 15 -10 0 -5 -7 -10 -15
-10 -11 0 -15 -12 -15 -50 0 -38 -4 -50 -15 -50 -11 0 -15 12 -15 49 0 30 -5
52 -12 55 -10 5 -10 7 0 12 6 3 12 17 12 30 0 15 6 24 15 24 9 0 15 -9 15 -25z
m840 0 c0 -16 6 -25 15 -25 8 0 15 -4 15 -10 0 -5 -7 -10 -15 -10 -11 0 -15
-12 -15 -50 0 -38 -4 -50 -15 -50 -11 0 -15 12 -15 49 0 30 -5 52 -12 55 -10
5 -10 7 0 12 6 3 12 17 12 30 0 15 6 24 15 24 9 0 15 -9 15 -25z m360 0 c0
-16 6 -25 15 -25 8 0 15 -4 15 -10 0 -5 -7 -10 -15 -10 -11 0 -15 -12 -15 -50
0 -38 -4 -50 -15 -50 -11 0 -15 12 -15 49 0 30 -5 52 -12 55 -10 5 -10 7 0 12
6 3 12 17 12 30 0 15 6 24 15 24 9 0 15 -9 15 -25z m-4032 -94 c2 -40 0 -51
-12 -51 -11 0 -16 13 -18 47 -2 37 -7 49 -22 51 -24 5 -36 -14 -36 -60 0 -27
-4 -38 -15 -38 -12 0 -15 13 -15 59 l0 60 30 -1 c17 -1 33 2 37 6 4 3 16 0 27
-8 16 -10 22 -26 24 -65z m490 51 c6 -9 12 -27 12 -41 0 -60 -83 -86 -116 -35
-43 65 55 137 104 76z m172 -47 c0 -42 -3 -55 -15 -55 -11 0 -15 12 -15 50 0
43 -3 50 -20 50 -24 0 -40 -28 -40 -69 0 -17 -4 -31 -10 -31 -6 0 -10 27 -10
60 0 33 4 60 10 60 6 0 10 -4 10 -9 0 -6 12 -4 27 4 44 23 63 5 63 -60z m424
54 c14 -11 26 -24 26 -28 0 -4 -18 -13 -40 -21 -41 -16 -50 -35 -15 -36 36 0
31 -19 -7 -22 -31 -3 -40 1 -54 23 -22 33 -10 74 26 92 33 17 33 16 64 -8z
m310 0 c14 -11 26 -24 26 -28 0 -4 -18 -13 -40 -21 -41 -16 -50 -35 -15 -36
36 0 31 -19 -7 -22 -31 -3 -40 1 -54 23 -22 33 -10 74 26 92 33 17 33 16 64
-8z m258 -12 c26 -40 -7 -97 -55 -97 -78 0 -92 98 -17 122 18 6 62 -9 72 -25z
m151 22 c29 -16 37 -28 37 -60 0 -39 -32 -63 -75 -56 -34 6 -35 5 -35 -29 0
-24 -4 -34 -12 -32 -9 3 -14 33 -16 91 l-3 86 31 -1 c17 -1 33 2 37 5 9 9 11
9 36 -4z m187 -11 c0 -5 10 -2 22 6 28 20 33 20 52 0 22 -21 22 -114 1 -114
-11 0 -15 12 -15 50 0 44 -3 50 -20 50 -22 0 -40 -34 -40 -76 0 -13 -4 -24
-10 -24 -5 0 -10 20 -10 45 0 32 -5 47 -15 51 -25 10 -45 -16 -45 -57 0 -28
-4 -39 -15 -39 -12 0 -15 13 -15 60 0 47 3 60 15 60 8 0 15 -5 15 -11 0 -6 9
-4 21 4 21 15 59 12 59 -5z m234 1 c14 -11 26 -24 26 -28 0 -4 -18 -13 -40
-21 -41 -16 -50 -35 -15 -36 36 0 31 -19 -7 -22 -31 -3 -40 1 -54 23 -22 33
-10 74 26 92 33 17 33 16 64 -8z m184 -58 c2 -40 0 -51 -12 -51 -11 0 -16 13
-18 47 -2 37 -7 49 -22 51 -24 5 -36 -14 -36 -60 0 -27 -4 -38 -15 -38 -12 0
-15 13 -15 59 l0 60 30 -1 c17 -1 33 2 37 6 4 3 16 0 27 -8 16 -10 22 -26 24
-65z m710 66 c20 1 22 -4 22 -56 l0 -57 -47 -2 c-32 -1 -53 4 -65 15 -18 16
-24 59 -10 79 12 19 46 34 62 27 8 -3 25 -6 38 -6z m330 -10 c23 -18 12 -35
-30 -49 -47 -16 -50 -34 -5 -31 37 2 30 -21 -7 -25 -49 -6 -85 53 -58 95 18
29 69 34 100 10z m132 2 c0 -5 -10 -8 -21 -6 -33 3 -32 -16 1 -35 33 -19 38
-39 16 -57 -18 -15 -68 -11 -74 6 -2 9 5 11 27 7 40 -8 41 10 1 31 -36 19 -40
52 -8 64 25 9 58 3 58 -10z m731 9 c29 1 29 0 29 -57 l0 -58 -57 1 c-53 1 -59
3 -71 30 -11 21 -12 34 -3 52 11 25 49 46 65 36 5 -3 22 -5 37 -4z m197 -67
c2 -40 0 -51 -12 -51 -11 0 -16 13 -18 47 -2 37 -7 49 -22 51 -24 5 -36 -14
-36 -60 0 -27 -4 -38 -15 -38 -12 0 -15 13 -15 59 l0 60 30 -1 c17 -1 33 2 37
6 4 3 16 0 27 -8 16 -10 22 -26 24 -65z m122 58 c0 -5 -10 -8 -21 -6 -33 3
-32 -16 1 -35 33 -19 38 -39 16 -57 -18 -15 -68 -11 -74 6 -2 9 5 11 27 7 24
-5 31 -3 31 9 0 8 -11 18 -24 21 -34 8 -42 37 -17 57 21 17 61 15 61 -2z
m-4890 -34 c0 -32 5 -47 15 -51 25 -10 45 16 45 57 0 28 4 39 15 39 12 0 15
-13 15 -59 l0 -59 -52 1 -53 2 -3 58 c-2 35 1 57 8 57 5 0 10 -20 10 -45z
m400 32 c0 -7 -13 -12 -32 -12 -30 0 -33 -3 -36 -32 -3 -27 1 -33 22 -39 14
-3 30 -3 35 1 6 3 11 -1 11 -9 0 -22 -58 -21 -82 1 -22 20 -23 61 -1 85 19 21
83 25 83 5z m190 -47 c0 -47 -3 -60 -15 -60 -12 0 -15 13 -15 60 0 47 3 60 15
60 12 0 15 -13 15 -60z m855 23 l18 -38 15 38 c8 20 21 37 28 37 19 0 17 -7
-15 -69 l-28 -55 -32 55 c-35 60 -37 69 -18 69 7 0 22 -17 32 -37z m1745 27
c0 -6 8 -5 20 2 10 7 23 8 27 4 4 -5 2 -11 -5 -13 -26 -10 -42 -36 -42 -69 0
-24 -5 -34 -15 -34 -12 0 -15 13 -15 60 0 47 3 60 15 60 8 0 15 -5 15 -10z
m299 -27 l19 -38 16 38 c9 20 23 37 31 37 12 0 8 -14 -16 -62 -34 -67 -32 -68
-75 15 -19 37 -21 47 -9 47 8 0 23 -17 34 -37z m541 -23 c0 -47 -3 -60 -15
-60 -12 0 -15 13 -15 60 0 47 3 60 15 60 12 0 15 -13 15 -60z m350 50 c0 -7 7
-7 21 0 29 16 38 3 11 -16 -16 -11 -22 -25 -22 -55 0 -28 -4 -39 -15 -39 -12
0 -15 13 -15 60 0 33 4 60 10 60 6 0 10 -5 10 -10z m-291 -132 c-11 -19 -14
-20 -17 -6 -2 9 2 27 9 40 11 19 14 20 17 6 2 -9 -2 -27 -9 -40z m881 47 c0
-15 -34 -69 -37 -59 -5 16 15 64 27 64 5 0 10 -2 10 -5z m-3686 -253 c32 -63
27 -151 -10 -210 -22 -33 -37 -17 -18 19 26 52 29 120 6 172 -28 62 -9 79 22
19z m246 29 c0 -5 -7 -11 -15 -15 -9 -3 -15 -19 -15 -41 0 -20 -5 -45 -10 -55
-7 -13 -7 -21 0 -25 5 -3 10 -26 10 -51 0 -32 4 -44 15 -44 8 0 15 -5 15 -11
0 -6 -12 -9 -27 -7 -26 3 -28 7 -31 53 -2 27 -8 55 -14 63 -8 9 -8 16 0 24 7
7 12 33 12 58 0 26 3 50 7 53 10 10 53 8 53 -2z m-1055 -22 c16 -17 17 -24 7
-51 -10 -26 -9 -35 3 -48 37 -41 -1 -90 -70 -90 l-45 0 0 105 0 105 43 0 c32
0 49 -6 62 -21z m100 -18 c7 -12 -12 -24 -25 -16 -11 7 -4 25 10 25 5 0 11 -4
15 -9z m-605 -116 c0 -67 -18 -73 -22 -7 -3 43 -5 47 -28 47 -23 0 -25 -4 -28
-47 -2 -34 -7 -48 -18 -48 -11 0 -14 14 -14 61 0 50 3 60 15 55 8 -3 25 -2 37
3 41 15 58 -3 58 -64z m163 43 c21 -25 22 -47 1 -76 -31 -45 -114 -18 -114 37
1 65 69 89 113 39z m175 -47 c2 -40 0 -51 -12 -51 -11 0 -16 13 -18 47 -2 37
-7 49 -22 51 -24 5 -36 -14 -36 -60 0 -27 -4 -38 -15 -38 -12 0 -15 13 -15 59
l0 60 30 -1 c17 -1 33 2 37 6 4 3 16 0 27 -8 16 -10 22 -26 24 -65z m432 4 c0
-42 -3 -55 -15 -55 -11 0 -15 12 -15 50 0 43 -3 50 -20 50 -24 0 -40 -28 -40
-69 0 -17 -4 -31 -10 -31 -6 0 -10 27 -10 60 0 33 4 60 10 60 6 0 10 -4 10 -9
0 -6 12 -4 27 4 44 23 63 5 63 -60z m151 63 c29 1 29 0 29 -57 l0 -58 -57 1
c-53 1 -59 3 -71 30 -11 21 -12 34 -3 52 11 25 49 46 65 36 5 -3 22 -5 37 -4z
m-321 -58 c0 -33 -4 -60 -10 -60 -6 0 -10 27 -10 60 0 33 4 60 10 60 6 0 10
-27 10 -60z m430 50 c0 -6 8 -5 20 2 10 7 23 8 27 4 4 -5 2 -11 -5 -13 -26
-10 -42 -36 -42 -69 0 -24 -5 -34 -15 -34 -12 0 -15 13 -15 60 0 47 3 60 15
60 8 0 15 -5 15 -10z m121 -31 l21 -42 18 42 c11 22 24 41 31 41 13 0 13 3
-32 -102 -18 -43 -39 -78 -46 -78 -11 0 -10 6 1 33 12 30 11 36 -16 90 -22 44
-25 57 -13 57 8 0 24 -19 36 -41z m39 -344 c0 -16 6 -25 15 -25 8 0 15 -4 15
-10 0 -5 -7 -10 -15 -10 -11 0 -15 -12 -15 -50 0 -38 -4 -50 -15 -50 -11 0
-15 12 -15 49 0 30 -5 52 -12 55 -10 5 -10 7 0 12 6 3 12 17 12 30 0 15 6 24
15 24 9 0 15 -9 15 -25z m-112 -31 c32 -22 27 -41 -15 -54 -21 -7 -42 -16 -47
-21 -11 -10 39 -23 53 -14 6 3 11 -1 11 -9 0 -11 -10 -16 -32 -16 -79 0 -94
95 -18 123 23 8 24 8 48 -9z m580 -63 c2 -40 0 -51 -12 -51 -11 0 -16 13 -18
47 -2 37 -7 49 -22 51 -24 5 -36 -14 -36 -60 0 -27 -4 -38 -15 -38 -12 0 -15
13 -15 59 l0 60 30 -1 c17 -1 33 2 37 6 4 3 16 0 27 -8 16 -10 22 -26 24 -65z
m-758 57 c0 -9 3 -9 12 0 7 7 19 12 28 12 10 -1 6 -8 -12 -21 -22 -16 -28 -29
-28 -60 0 -28 -4 -39 -15 -39 -12 0 -15 13 -15 60 0 47 3 60 15 60 8 0 15 -5
15 -12z m390 -39 c0 -47 2 -50 23 -47 19 3 22 10 25 51 2 33 7 47 18 47 11 0
14 -14 14 -60 0 -33 -4 -60 -10 -60 -5 0 -10 5 -10 11 0 8 -4 8 -14 0 -8 -7
-27 -11 -43 -9 -27 3 -28 6 -31 61 -2 46 0 57 13 57 11 0 15 -12 15 -51z m160
41 c0 -6 8 -5 20 2 10 7 23 8 27 4 4 -5 2 -11 -5 -13 -26 -10 -42 -36 -42 -69
0 -24 -5 -34 -15 -34 -12 0 -15 13 -15 60 0 47 3 60 15 60 8 0 15 -5 15 -10z
m280 -20 c0 -5 -4 -10 -10 -10 -5 0 -10 5 -10 10 0 6 5 10 10 10 6 0 10 -4 10
-10z m-21 -112 c-11 -19 -14 -20 -17 -6 -2 9 2 27 9 40 11 19 14 20 17 6 2 -9
-2 -27 -9 -40z m-1771 -218 c1 -25 8 -55 14 -67 8 -16 8 -26 0 -35 -6 -8 -12
-34 -14 -58 -3 -41 -6 -45 -30 -48 -16 -2 -28 1 -28 7 0 6 7 11 15 11 11 0 15
12 15 44 0 25 5 48 10 51 7 4 7 12 0 25 -5 10 -10 37 -10 59 0 30 -4 41 -15
41 -8 0 -15 5 -15 11 0 6 12 9 28 7 24 -3 27 -7 30 -48z m116 28 c3 -13 6 -37
6 -53 0 -17 5 -36 12 -43 9 -9 9 -15 0 -24 -7 -7 -12 -26 -12 -42 0 -55 -10
-76 -36 -76 -28 0 -30 8 -8 24 12 9 15 32 15 106 0 74 -3 97 -15 106 -22 16
-20 24 8 24 16 0 26 -7 30 -22z"/>
<path d="M4880 7355 l0 -75 33 0 c43 0 77 35 77 78 0 43 -30 72 -75 72 l-35 0
0 -75z"/>
<path d="M2960 7335 c-7 -9 -10 -18 -7 -22 9 -9 68 18 61 28 -8 14 -40 10 -54
-6z"/>
<path d="M3640 7331 c-21 -40 20 -77 58 -52 8 5 12 21 10 37 -2 23 -9 30 -30
32 -19 2 -30 -3 -38 -17z"/>
<path d="M4394 7336 c-15 -40 21 -80 54 -60 37 24 21 74 -25 74 -13 0 -26 -6
-29 -14z"/>
<path d="M5093 7335 c-3 -9 -3 -18 -1 -21 8 -8 58 15 58 26 0 16 -50 12 -57
-5z"/>
<path d="M3931 6926 c-16 -19 -11 -46 12 -60 25 -16 52 4 52 40 0 24 -5 30
-26 32 -14 2 -31 -4 -38 -12z"/>
<path d="M4551 6926 c-16 -19 -11 -46 12 -60 25 -16 52 4 52 40 0 24 -5 30
-26 32 -14 2 -31 -4 -38 -12z"/>
<path d="M4873 6925 c-3 -9 -3 -18 -1 -20 8 -9 68 17 62 26 -9 15 -54 10 -61
-6z"/>
<path d="M3931 6516 c-16 -19 -11 -46 12 -60 25 -16 52 4 52 40 0 24 -5 30
-26 32 -14 2 -31 -4 -38 -12z"/>
<path d="M4551 6516 c-16 -19 -11 -46 12 -60 25 -16 52 4 52 40 0 24 -5 30
-26 32 -14 2 -31 -4 -38 -12z"/>
<path d="M4830 6170 c0 -25 4 -30 24 -30 13 0 29 6 35 14 18 22 2 46 -30 46
-26 0 -29 -4 -29 -30z"/>
<path d="M4830 6080 c0 -27 3 -30 34 -30 22 0 36 6 40 16 9 24 -12 44 -45 44
-26 0 -29 -4 -29 -30z"/>
<path d="M3931 6106 c-16 -19 -11 -46 12 -60 25 -16 52 4 52 40 0 24 -5 30
-26 32 -14 2 -31 -4 -38 -12z"/>
<path d="M4490 6105 c-26 -32 13 -81 48 -59 34 22 22 74 -18 74 -10 0 -23 -7
-30 -15z"/>
<path d="M5254 6106 c-15 -40 21 -80 54 -60 37 24 21 74 -25 74 -13 0 -26 -6
-29 -14z"/>
<path d="M4004 5286 c-9 -23 -1 -48 19 -60 25 -16 52 4 52 40 0 25 -4 29 -33
32 -22 2 -34 -2 -38 -12z"/>
<path d="M3577 5293 c-11 -11 -8 -48 5 -61 32 -32 80 8 58 48 -10 19 -49 27
-63 13z"/>
<path d="M4183 5285 c-3 -9 -3 -18 -1 -20 8 -9 68 17 62 26 -9 15 -54 10 -61
-6z"/>
<path d="M4493 5285 c-3 -9 -3 -18 -1 -20 8 -9 68 17 62 26 -9 15 -54 10 -61
-6z"/>
<path d="M4737 5294 c-15 -15 -7 -63 12 -69 33 -10 52 5 49 39 -2 25 -8 32
-28 34 -14 2 -29 0 -33 -4z"/>
<path d="M4911 5286 c-16 -19 -11 -46 12 -60 25 -16 52 4 52 40 0 24 -5 30
-26 32 -14 2 -31 -4 -38 -12z"/>
<path d="M5323 5285 c-3 -9 -3 -18 -1 -20 8 -9 68 17 62 26 -9 15 -54 10 -61
-6z"/>
<path d="M6217 5293 c-11 -11 -8 -48 5 -61 32 -32 87 18 58 53 -13 15 -51 20
-63 8z"/>
<path d="M6540 5285 c-7 -9 -10 -18 -7 -22 9 -9 68 18 61 28 -8 14 -40 10 -54
-6z"/>
<path d="M7411 5286 c-16 -19 -11 -46 12 -60 25 -16 52 4 52 40 0 24 -5 30
-26 32 -14 2 -31 -4 -38 -12z"/>
<path d="M3300 4940 c0 -27 3 -30 29 -30 21 0 32 6 36 20 9 28 -2 40 -36 40
-26 0 -29 -3 -29 -30z"/>
<path d="M3300 4849 c0 -29 2 -30 37 -27 65 5 56 57 -9 58 -25 0 -28 -4 -28
-31z"/>
<path d="M2960 4871 c-22 -43 29 -83 60 -47 6 8 10 25 8 38 -4 32 -52 38 -68
9z"/>
<path d="M3731 4876 c-16 -19 -11 -46 12 -60 25 -16 52 4 52 40 0 24 -5 30
-26 32 -14 2 -31 -4 -38 -12z"/>
<path d="M3893 4465 c-3 -9 -3 -18 -1 -21 8 -8 58 15 58 26 0 16 -50 12 -57
-5z"/>
<path d="M8768 6533 c117 -2 306 -2 420 0 114 1 18 2 -213 2 -231 0 -324 -1
-207 -2z"/>
<path d="M8558 5063 c-2 -753 -7 -1376 -12 -1386 -4 -10 -20 -24 -35 -32 -23
-13 16 -14 334 -15 251 0 364 -3 372 -11 13 -13 7 -226 -8 -275 -5 -17 -23
-44 -40 -60 l-30 -29 -1532 -5 -1532 -5 -3 -121 -3 -121 48 -12 c82 -21 151
-58 209 -113 80 -75 121 -152 139 -260 l6 -38 61 0 c59 0 61 1 101 45 22 25
63 58 91 73 44 23 63 27 141 27 81 0 95 -3 144 -30 29 -16 70 -49 91 -72 37
-42 39 -43 99 -43 l61 0 -35 70 -35 70 93 0 93 0 34 -70 34 -70 71 0 71 0 30
70 29 70 83 0 82 0 -35 -70 -35 -70 825 0 825 0 0 1925 0 1925 -415 0 -415 0
-2 -1367z"/>
<path d="M4450 3615 c0 -8 9 -24 20 -35 20 -20 33 -20 934 -20 l915 0 20 26
c12 15 21 31 21 35 0 5 -424 9 -955 9 -842 0 -955 -2 -955 -15z"/>
<path d="M8295 3508 c-51 -30 -60 -84 -20 -123 30 -31 73 -32 109 -4 50 39 26
123 -39 134 -16 3 -39 0 -50 -7z"/>
<path d="M8553 3510 c-49 -20 -59 -96 -17 -129 36 -28 79 -27 109 4 40 40 30
96 -22 123 -25 14 -40 14 -70 2z"/>
<path d="M8820 3513 c-33 -12 -50 -37 -50 -73 0 -98 137 -110 156 -13 5 27 1
37 -24 63 -29 29 -50 35 -82 23z"/>
<path d="M1893 3460 c-26 -11 -29 -20 -11 -38 9 -9 77 -12 244 -12 196 0 233
2 244 15 29 34 -2 40 -233 42 -122 1 -232 -2 -244 -7z"/>
<path d="M5830 2564 l0 -276 133 4 c126 3 134 4 182 33 l50 30 -112 3 -113 3
0 54 0 55 -55 0 -55 0 0 185 c0 158 -2 185 -15 185 -13 0 -15 -37 -15 -276z"/>
<path d="M6070 2706 l0 -126 105 0 c58 0 105 4 105 8 0 5 -7 32 -16 61 -23 78
-95 152 -171 175 l-23 7 0 -125z"/>
<path d="M3943 2540 c-42 -25 -63 -68 -63 -129 0 -42 5 -56 31 -86 89 -101
239 -40 239 97 0 109 -115 175 -207 118z"/>
</g>
</svg>
